<svg xmlns="http://www.w3.org/2000/svg" viewBox="0 0 1245.04 1580.46"><defs><style>.cls-1,.cls-2{fill:#fff;}.cls-1{fill-rule:evenodd;}</style></defs><title>Asset 1</title><g id="Layer_2" data-name="Layer 2"><g id="Logo"><g id="Logo_White" data-name="Logo White"><path id="Makr" class="cls-1" d="M623,0C278.51,0,0,280.57,0,627.67,0,905.12,178.45,1140,426,1223.1c31,6.25,42.29-13.5,42.29-30.12,0-14.55-1-64.43-1-116.4-173.31,37.42-209.4-74.82-209.4-74.82C230,929,188.76,910.32,188.76,910.32c-56.73-38.45,4.13-38.45,4.13-38.45,62.92,4.16,95.94,64.43,95.94,64.43,55.69,95.6,145.44,68.59,181.54,52,5.15-40.53,21.67-68.59,39.2-84.17C371.34,889.54,225.91,835.5,225.91,594.41c0-68.59,24.74-124.7,63.94-168.34-6.18-15.59-27.85-80,6.2-166.28,0,0,52.61-16.63,171.22,64.43a593.88,593.88,0,0,1,311.52,0C897.42,243.16,950,259.79,950,259.79c34.05,86.25,12.37,150.69,6.19,166.28,40.23,43.64,64,99.75,64,168.34,0,241.09-145.44,294.08-284.7,309.68,22.7,19.74,42.29,57.14,42.29,116.38,0,84.17-1,151.72-1,172.5,0,16.63,11.35,36.38,42.28,30.15,247.57-83.15,426-318,426-595.45C1246.06,280.57,966.53,0,623,0Z"/><g id="Type"><path class="cls-2" d="M365.43,1451.09H295.15a3.28,3.28,0,0,0-3.29,3.28v34.37a3.28,3.28,0,0,0,3.29,3.28h27.41v42.7s-6.15,2.09-23.17,2.09c-20.08,0-48.13-7.33-48.13-69S280.47,1398,307.89,1398c23.73,0,34,4.18,40.47,6.2,2,.62,3.93-1.41,3.93-3.23l7.84-33.2a3,3,0,0,0-1.25-2.56c-2.64-1.89-18.77-10.91-59.49-10.91-46.92,0-95,20-95,115.92s55.1,110.26,101.54,110.26c38.44,0,61.77-16.43,61.77-16.43a2.81,2.81,0,0,0,1.06-2.49V1454.37A3.28,3.28,0,0,0,365.43,1451.09Z"/><path class="cls-2" d="M727.63,1365.78a3.27,3.27,0,0,0-3.27-3.3H684.79a3.28,3.28,0,0,0-3.27,3.3v76.47H619.84v-76.47a3.27,3.27,0,0,0-3.26-3.3H577a3.28,3.28,0,0,0-3.27,3.3v207.07a3.3,3.3,0,0,0,3.27,3.32h39.57a3.29,3.29,0,0,0,3.26-3.32v-88.57h61.69l-.11,88.57a3.3,3.3,0,0,0,3.28,3.32h39.66a3.3,3.3,0,0,0,3.27-3.32Z"/><path class="cls-2" d="M440.1,1393a25.52,25.52,0,1,0-25.52,25.78A25.62,25.62,0,0,0,440.1,1393Z"/><path class="cls-2" d="M437.27,1529.17v-95.58a3.28,3.28,0,0,0-3.27-3.3H394.55a3.77,3.77,0,0,0-3.43,3.68v136.94c0,4,2.51,5.22,5.76,5.22h35.54c3.9,0,4.85-1.91,4.85-5.28Z"/><path class="cls-2" d="M878,1430.6H838.75a3.29,3.29,0,0,0-3.27,3.31v101.53a44.33,44.33,0,0,1-24.13,7.3c-14.16,0-17.92-6.42-17.92-20.29v-88.54a3.28,3.28,0,0,0-3.26-3.31H750.31a3.29,3.29,0,0,0-3.27,3.31v95.25c0,41.18,23,51.25,54.52,51.25,25.91,0,46.79-14.31,46.79-14.31s1,7.55,1.44,8.44a3.47,3.47,0,0,0,2.89,1.79l25.36-.11a3.3,3.3,0,0,0,3.27-3.31v-139A3.29,3.29,0,0,0,878,1430.6Z"/><path class="cls-2" d="M985.35,1426c-22.3,0-37.47,10-37.47,10v-70.12a3.28,3.28,0,0,0-3.27-3.3H904.93a3.28,3.28,0,0,0-3.27,3.3v207.07a3.29,3.29,0,0,0,3.27,3.32h27.53a3.3,3.3,0,0,0,2.88-1.76c.68-1.12,1.67-9.55,1.67-9.55s16.22,15.38,46.94,15.38c36.07,0,56.75-18.3,56.75-82.12S1007.67,1426,985.35,1426Zm-15.49,116.67A47.13,47.13,0,0,1,947,1536v-65.57a52.37,52.37,0,0,1,20.3-6.59c14.14-1.27,27.77,3,27.77,36.74C995.07,1536.17,988.92,1543.19,969.86,1542.62Z"/><path class="cls-2" d="M551,1430.27H521.32l0-39.22c0-1.48-.77-2.22-2.48-2.22H478.35c-1.58,0-2.42.69-2.42,2.2v40.52s-20.27,4.9-21.64,5.29a3.29,3.29,0,0,0-2.37,3.16v25.47a3.28,3.28,0,0,0,3.27,3.3h20.74V1530c0,45.5,31.92,50,53.46,50,9.84,0,21.61-3.16,23.55-3.88a3,3,0,0,0,1.86-3l0-28a3.33,3.33,0,0,0-3.28-3.3c-1.73,0-6.15.7-10.71.7-14.58,0-19.52-6.78-19.52-15.56v-58.22H551a3.28,3.28,0,0,0,3.27-3.3v-31.9A3.28,3.28,0,0,0,551,1430.27Z"/></g></g></g></g></svg>